<svg xmlns="http://www.w3.org/2000/svg" xmlns:xlink="http://www.w3.org/1999/xlink" xml:lang="en" height="152.136pt" width="380.88pt" viewBox="-79.092 -68.94000000000001 380.88 152.136"><polygon points="214.326,23.49 206.226,34.83 198.126,23.49 " style="stroke:black;fill:none;stroke-width:2.0;stroke-dasharray:-;stroke-linecap:round;stroke-linejoin:round;" /><path d="M -25.92,-0.0 L -12.96,-0 L 0,-0" style="stroke:black;fill:none;stroke-width:2.0;stroke-dasharray:-;stroke-linecap:round;stroke-linejoin:round;" /><path d="M 206.226,-0.0 L 206.226,23.49 M 214.326,34.83 L 198.126,34.83 M 206.226,34.83 L 206.226,58.32" style="stroke:black;fill:none;stroke-width:2.0;stroke-dasharray:-;stroke-linecap:round;stroke-linejoin:round;" /><path d="M 206.226,58.32 L 206.226,71.28 L 198.126,71.28 L 214.326,71.28 M 200.556,75.168 L 211.896,75.168 M 204.606,79.056 L 207.846,79.056" style="stroke:black;fill:none;stroke-width:2.0;stroke-dasharray:-;stroke-linecap:round;stroke-linejoin:round;" /><path d="M 97.19999999999999,-0.0 L 97.2,-40.5 L 167.348,-0 L 97.2,40.5 L 97.2,-0 M 167.348,-0" style="stroke:black;fill:none;stroke-width:2.0;stroke-dasharray:-;stroke-linecap:round;stroke-linejoin:round;" /><path d="M 102.72850721331743,-20.25 L 109.209,-20.25" style="stroke:black;fill:none;stroke-width:2.0;stroke-dasharray:-;stroke-linecap:round;stroke-linejoin:round;" /><path d="M 102.72850721331743,20.25 L 109.209,20.25" style="stroke:black;fill:none;stroke-width:2.0;stroke-dasharray:-;stroke-linecap:round;stroke-linejoin:round;" /><path d="M 105.96850721331744,23.49 L 105.969,17.01" style="stroke:black;fill:none;stroke-width:2.0;stroke-dasharray:-;stroke-linecap:round;stroke-linejoin:round;" /><path d="M 0.0,-0.0 L 40.5,-0 L 81,-0" style="stroke:black;fill:none;stroke-width:2.0;stroke-dasharray:-;stroke-linecap:round;stroke-linejoin:round;" /><path d="M 81.0,-0.0 L 81,10.125 L 81,20.25" style="stroke:black;fill:none;stroke-width:2.0;stroke-dasharray:-;stroke-linecap:round;stroke-linejoin:round;" /><path d="M 81.0,20.25 L 89.1,20.25 L 97.2,20.25" style="stroke:black;fill:none;stroke-width:2.0;stroke-dasharray:-;stroke-linecap:round;stroke-linejoin:round;" /><path d="M 120.58268590217985,-27.215999999999998 L 120.583,-36.936 L 120.583,-46.656" style="stroke:black;fill:none;stroke-width:2.0;stroke-dasharray:-;stroke-linecap:round;stroke-linejoin:round;" /><path d="M 120.58268590217985,27.215999999999998 L 120.583,36.936 L 120.583,46.656" style="stroke:black;fill:none;stroke-width:2.0;stroke-dasharray:-;stroke-linecap:round;stroke-linejoin:round;" /><path d="M 167.34805770653952,-0.0 L 186.787,-0 L 206.226,-0" style="stroke:black;fill:none;stroke-width:2.0;stroke-dasharray:-;stroke-linecap:round;stroke-linejoin:round;" /><path d="M 206.226,-0.0 L 206.226,-32.4 L 206.226,-64.8" style="stroke:black;fill:none;stroke-width:2.0;stroke-dasharray:-;stroke-linecap:round;stroke-linejoin:round;" /><path d="M 206.226,-64.8 L 143.613,-64.8 L 81,-64.8" style="stroke:black;fill:none;stroke-width:2.0;stroke-dasharray:-;stroke-linecap:round;stroke-linejoin:round;" /><path d="M 81.0,-64.80000000000001 L 81,-42.525 L 81,-20.25" style="stroke:black;fill:none;stroke-width:2.0;stroke-dasharray:-;stroke-linecap:round;stroke-linejoin:round;" /><path d="M 80.99999999999999,-20.25 L 89.1,-20.25 L 97.2,-20.25" style="stroke:black;fill:none;stroke-width:2.0;stroke-dasharray:-;stroke-linecap:round;stroke-linejoin:round;" /><path d="M 206.226,-0.0 L 222.426,-0 L 238.626,-0" style="stroke:black;fill:none;stroke-width:2.0;stroke-dasharray:-;stroke-linecap:round;stroke-linejoin:round;" /><text x="-29.16" y="-10.0" dominant-baseline="central" fill="black" font-size="10" font-family="sans" text-anchor="end"><tspan x="-29.16" dy="10">IN (Node 1)</tspan></text><text x="217.56599999999997" y="14.16000000000001" dominant-baseline="central" fill="black" font-size="10" font-family="sans" text-anchor="start"><tspan x="217.56599999999997" dy="10">D1</tspan><tspan x="217.56599999999997" dy="10">1N4148</tspan></text><text x="123.82268590217984" y="-46.93599999999999" dominant-baseline="central" fill="black" font-size="10" font-family="sans" text-anchor="start"><tspan x="123.82268590217984" dy="10">+9V (VCC)</tspan></text><text x="123.82268590217984" y="26.935999999999993" dominant-baseline="central" fill="black" font-size="10" font-family="sans" text-anchor="start"><tspan x="123.82268590217984" dy="10">-9V (VEE)</tspan></text><text x="241.86599999999999" y="-10.0" dominant-baseline="central" fill="black" font-size="10" font-family="sans" text-anchor="start"><tspan x="241.86599999999999" dy="10">OUT (Node 2)</tspan></text><circle cx="0" cy="-0" r="2.43" style="stroke:black;fill:black;stroke-width:2.0;stroke-dasharray:-;" /><circle cx="206.226" cy="-0" r="2.43" style="stroke:black;fill:black;stroke-width:2.0;stroke-dasharray:-;" /><circle cx="206.226" cy="-0" r="2.43" style="stroke:black;fill:black;stroke-width:2.0;stroke-dasharray:-;" /><circle cx="206.226" cy="-0" r="2.43" style="stroke:black;fill:black;stroke-width:2.0;stroke-dasharray:-;" /></svg>