<svg xmlns="http://www.w3.org/2000/svg" xmlns:xlink="http://www.w3.org/1999/xlink" xml:lang="en" height="358.56000000000006pt" width="575.2799999999999pt" viewBox="-79.092 -266.76 575.2799999999999 358.56000000000006"><polygon points="78.57,50.22 89.91,58.32 78.57,66.42 " style="stroke:black;fill:none;stroke-width:2.0;stroke-dasharray:-;stroke-linecap:round;stroke-linejoin:round;" /><path d="M -25.92,-0.0 L -12.96,-0 L 0,-0" style="stroke:black;fill:none;stroke-width:2.0;stroke-dasharray:-;stroke-linecap:round;stroke-linejoin:round;" /><path d="M 0.0,-0.0 L 32.4,-0 L 35.1,-8.1 L 40.5,8.1 L 45.9,-8.1 L 51.3,8.1 L 56.7,-8.1 L 62.1,8.1 L 64.8,-0 L 97.2,-0" style="stroke:black;fill:none;stroke-width:2.0;stroke-dasharray:-;stroke-linecap:round;stroke-linejoin:round;" /><path d="M 97.19999999999999,-0.0 L 116.64,-0 L 119.34,-8.1 L 124.74,8.1 L 130.14,-8.1 L 135.54,8.1 L 140.94,-8.1 L 146.34,8.1 L 149.04,-0 L 168.48,-0" style="stroke:black;fill:none;stroke-width:2.0;stroke-dasharray:-;stroke-linecap:round;stroke-linejoin:round;" /><path d="M 168.48,-0.0 L 181.44,-0 L 194.4,-0" style="stroke:black;fill:none;stroke-width:2.0;stroke-dasharray:-;stroke-linecap:round;stroke-linejoin:round;" /><path d="M 0.0,-0.0 L -0,29.16 L -0,58.32" style="stroke:black;fill:none;stroke-width:2.0;stroke-dasharray:-;stroke-linecap:round;stroke-linejoin:round;" /><path d="M 0.0,58.32 L 78.57,58.32 M 89.91,50.22 L 89.91,66.42 M 89.91,58.32 L 168.48,58.32" style="stroke:black;fill:none;stroke-width:2.0;stroke-dasharray:-;stroke-linecap:round;stroke-linejoin:round;" /><path d="M 168.48,58.32 L 168.48,29.16 L 168.48,-0" style="stroke:black;fill:none;stroke-width:2.0;stroke-dasharray:-;stroke-linecap:round;stroke-linejoin:round;" /><path d="M 194.39999999999998,-0.0 L 194.4,26.244 M 202.5,26.244 L 186.3,26.244 M 202.5,32.076 L 186.3,32.076 M 194.4,32.076 L 194.4,58.32" style="stroke:black;fill:none;stroke-width:2.0;stroke-dasharray:-;stroke-linecap:round;stroke-linejoin:round;" /><path d="M 194.39999999999998,58.32 L 194.4,71.28 L 186.3,71.28 L 202.5,71.28 M 188.73,75.168 L 200.07,75.168 M 192.78,79.056 L 196.02,79.056" style="stroke:black;fill:none;stroke-width:2.0;stroke-dasharray:-;stroke-linecap:round;stroke-linejoin:round;" /><path d="M 291.59999999999997,-0.0 L 291.6,-40.5 L 361.748,-0 L 291.6,40.5 L 291.6,-0 M 361.748,-0" style="stroke:black;fill:none;stroke-width:2.0;stroke-dasharray:-;stroke-linecap:round;stroke-linejoin:round;" /><path d="M 297.12850721331745,-20.25 L 303.609,-20.25" style="stroke:black;fill:none;stroke-width:2.0;stroke-dasharray:-;stroke-linecap:round;stroke-linejoin:round;" /><path d="M 297.12850721331745,20.25 L 303.609,20.25" style="stroke:black;fill:none;stroke-width:2.0;stroke-dasharray:-;stroke-linecap:round;stroke-linejoin:round;" /><path d="M 300.3685072133174,23.49 L 300.369,17.01" style="stroke:black;fill:none;stroke-width:2.0;stroke-dasharray:-;stroke-linecap:round;stroke-linejoin:round;" /><path d="M 194.39999999999998,-0.0 L 234.9,-0 L 275.4,-0" style="stroke:black;fill:none;stroke-width:2.0;stroke-dasharray:-;stroke-linecap:round;stroke-linejoin:round;" /><path d="M 275.4,-0.0 L 275.4,10.125 L 275.4,20.25" style="stroke:black;fill:none;stroke-width:2.0;stroke-dasharray:-;stroke-linecap:round;stroke-linejoin:round;" /><path d="M 275.4,20.25 L 283.5,20.25 L 291.6,20.25" style="stroke:black;fill:none;stroke-width:2.0;stroke-dasharray:-;stroke-linecap:round;stroke-linejoin:round;" /><path d="M 314.9826859021798,-27.215999999999998 L 314.983,-36.936 L 314.983,-46.656" style="stroke:black;fill:none;stroke-width:2.0;stroke-dasharray:-;stroke-linecap:round;stroke-linejoin:round;" /><path d="M 314.9826859021798,27.215999999999998 L 314.983,36.936 L 314.983,46.656" style="stroke:black;fill:none;stroke-width:2.0;stroke-dasharray:-;stroke-linecap:round;stroke-linejoin:round;" /><path d="M 361.7480577065395,-0.0 L 381.187,-0 L 400.626,-0" style="stroke:black;fill:none;stroke-width:2.0;stroke-dasharray:-;stroke-linecap:round;stroke-linejoin:round;" /><path d="M 400.6259999999999,-0.0 L 416.826,-0 L 433.026,-0" style="stroke:black;fill:none;stroke-width:2.0;stroke-dasharray:-;stroke-linecap:round;stroke-linejoin:round;" /><path d="M 400.6259999999999,-0.0 L 400.626,-32.4 L 400.626,-64.8" style="stroke:black;fill:none;stroke-width:2.0;stroke-dasharray:-;stroke-linecap:round;stroke-linejoin:round;" /><path d="M 400.6259999999999,-64.8 L 338.013,-64.8 L 275.4,-64.8" style="stroke:black;fill:none;stroke-width:2.0;stroke-dasharray:-;stroke-linecap:round;stroke-linejoin:round;" /><path d="M 275.4,-64.80000000000001 L 275.4,-42.525 L 275.4,-20.25" style="stroke:black;fill:none;stroke-width:2.0;stroke-dasharray:-;stroke-linecap:round;stroke-linejoin:round;" /><path d="M 275.4,-20.25 L 283.5,-20.25 L 291.6,-20.25" style="stroke:black;fill:none;stroke-width:2.0;stroke-dasharray:-;stroke-linecap:round;stroke-linejoin:round;" /><path d="M 400.6259999999999,-64.8 L 400.626,-149.04 L 400.626,-233.28" style="stroke:black;fill:none;stroke-width:2.0;stroke-dasharray:-;stroke-linecap:round;stroke-linejoin:round;" /><path d="M 194.39999999999998,-0.0 L 194.4,-71.28 L 194.4,-142.56" style="stroke:black;fill:none;stroke-width:2.0;stroke-dasharray:-;stroke-linecap:round;stroke-linejoin:round;" /><path d="M 97.19999999999999,-0.0 L 97.2,-93.96 L 97.2,-187.92" style="stroke:black;fill:none;stroke-width:2.0;stroke-dasharray:-;stroke-linecap:round;stroke-linejoin:round;" /><path d="M 0.0,-0.0 L 0,-116.64 L 0,-233.28" style="stroke:black;fill:none;stroke-width:2.0;stroke-dasharray:-;stroke-linecap:round;stroke-linejoin:round;" /><path d="M 194.39999999999998,-97.19999999999999 L 281.313,-97.2 L 284.013,-105.3 L 289.413,-89.1 L 294.813,-105.3 L 300.213,-89.1 L 305.613,-105.3 L 311.013,-89.1 L 313.713,-97.2 L 400.626,-97.2" style="stroke:black;fill:none;stroke-width:2.0;stroke-dasharray:-;stroke-linecap:round;stroke-linejoin:round;" /><path d="M 194.39999999999998,-142.56 L 294.597,-142.56 M 294.597,-150.66 L 294.597,-134.46 M 300.429,-150.66 L 300.429,-134.46 M 300.429,-142.56 L 400.626,-142.56" style="stroke:black;fill:none;stroke-width:2.0;stroke-dasharray:-;stroke-linecap:round;stroke-linejoin:round;" /><path d="M 97.19999999999999,-187.92 L 245.997,-187.92 M 245.997,-196.02 L 245.997,-179.82 M 251.829,-196.02 L 251.829,-179.82 M 251.829,-187.92 L 400.626,-187.92" style="stroke:black;fill:none;stroke-width:2.0;stroke-dasharray:-;stroke-linecap:round;stroke-linejoin:round;" /><path d="M 0.0,-233.28 L 197.397,-233.28 M 197.397,-241.38 L 197.397,-225.18 M 203.229,-241.38 L 203.229,-225.18 M 203.229,-233.28 L 400.626,-233.28" style="stroke:black;fill:none;stroke-width:2.0;stroke-dasharray:-;stroke-linecap:round;stroke-linejoin:round;" /><text x="-29.16" y="-10.0" dominant-baseline="central" fill="black" font-size="10" font-family="sans" text-anchor="end"><tspan x="-29.16" dy="10">IN (Node 1)</tspan></text><text x="48.599999999999994" y="1.3399999999999963" dominant-baseline="hanging" fill="black" font-size="10" font-family="sans" text-anchor="middle"><tspan x="48.599999999999994" dy="10">R1</tspan><tspan x="48.599999999999994" dy="10">10k</tspan></text><text x="132.83999999999997" y="1.3399999999999963" dominant-baseline="hanging" fill="black" font-size="10" font-family="sans" text-anchor="middle"><tspan x="132.83999999999997" dy="10">R2</tspan><tspan x="132.83999999999997" dy="10">11k</tspan></text><text x="84.24000000000001" y="59.66" dominant-baseline="hanging" fill="black" font-size="10" font-family="sans" text-anchor="middle"><tspan x="84.24000000000001" dy="10">D1</tspan><tspan x="84.24000000000001" dy="10">1N4148</tspan></text><text x="205.73999999999998" y="14.160000000000004" dominant-baseline="central" fill="black" font-size="10" font-family="sans" text-anchor="start"><tspan x="205.73999999999998" dy="10">C2</tspan><tspan x="205.73999999999998" dy="10">15.9nF</tspan></text><text x="318.2226859021798" y="-46.93599999999999" dominant-baseline="central" fill="black" font-size="10" font-family="sans" text-anchor="start"><tspan x="318.2226859021798" dy="10">+9V (VCC)</tspan></text><text x="318.2226859021798" y="26.935999999999993" dominant-baseline="central" fill="black" font-size="10" font-family="sans" text-anchor="start"><tspan x="318.2226859021798" dy="10">-9V (VEE)</tspan></text><text x="436.2659999999999" y="-10.0" dominant-baseline="central" fill="black" font-size="10" font-family="sans" text-anchor="start"><tspan x="436.2659999999999" dy="10">OUT (Node 2)</tspan></text><text x="297.513" y="-128.54" dominant-baseline="ideographic" fill="black" font-size="10" font-family="sans" text-anchor="middle"><tspan x="297.513" dy="10">R4</tspan><tspan x="297.513" dy="10">270k</tspan></text><text x="297.513" y="-173.9" dominant-baseline="ideographic" fill="black" font-size="10" font-family="sans" text-anchor="middle"><tspan x="297.513" dy="10">C4</tspan><tspan x="297.513" dy="10">150nF</tspan></text><text x="248.91299999999995" y="-219.25999999999996" dominant-baseline="ideographic" fill="black" font-size="10" font-family="sans" text-anchor="middle"><tspan x="248.91299999999995" dy="10">C1</tspan><tspan x="248.91299999999995" dy="10">10pF</tspan></text><text x="200.31299999999996" y="-264.62" dominant-baseline="ideographic" fill="black" font-size="10" font-family="sans" text-anchor="middle"><tspan x="200.31299999999996" dy="10">C3</tspan><tspan x="200.31299999999996" dy="10">560nF</tspan></text><circle cx="0" cy="-0" r="2.43" style="stroke:black;fill:black;stroke-width:2.0;stroke-dasharray:-;" /><circle cx="97.2" cy="-0" r="2.43" style="stroke:black;fill:black;stroke-width:2.0;stroke-dasharray:-;" /><circle cx="168.48" cy="-0" r="2.43" style="stroke:black;fill:black;stroke-width:2.0;stroke-dasharray:-;" /><circle cx="194.4" cy="-0" r="2.43" style="stroke:black;fill:black;stroke-width:2.0;stroke-dasharray:-;" /><circle cx="0" cy="58.32" r="2.43" style="stroke:black;fill:black;stroke-width:2.0;stroke-dasharray:-;" /><circle cx="400.626" cy="-0" r="2.43" style="stroke:black;fill:black;stroke-width:2.0;stroke-dasharray:-;" /><circle cx="400.626" cy="-97.2" r="2.43" style="stroke:black;fill:black;stroke-width:2.0;stroke-dasharray:-;" /><circle cx="400.626" cy="-142.56" r="2.43" style="stroke:black;fill:black;stroke-width:2.0;stroke-dasharray:-;" /><circle cx="400.626" cy="-187.92" r="2.43" style="stroke:black;fill:black;stroke-width:2.0;stroke-dasharray:-;" /><circle cx="400.626" cy="-233.28" r="2.43" style="stroke:black;fill:black;stroke-width:2.0;stroke-dasharray:-;" /><circle cx="194.4" cy="-97.2" r="2.43" style="stroke:black;fill:black;stroke-width:2.0;stroke-dasharray:-;" /><circle cx="194.4" cy="-142.56" r="2.43" style="stroke:black;fill:black;stroke-width:2.0;stroke-dasharray:-;" /><circle cx="97.2" cy="-187.92" r="2.43" style="stroke:black;fill:black;stroke-width:2.0;stroke-dasharray:-;" /><circle cx="0" cy="-233.28" r="2.43" style="stroke:black;fill:black;stroke-width:2.0;stroke-dasharray:-;" /></svg>